<?xml version="1.0" encoding="UTF-8"?>
<svg xmlns="http://www.w3.org/2000/svg" id="Layer_3" data-name="Layer 3" viewBox="0 0 64 64" width="50px" height="50px"><path d="M21,53v6H19V53H17v6H15V53H13v6H11V53H9v6H7V53H4.958a26.793,26.793,0,0,1-1.5,8H24.546a26.787,26.787,0,0,1-1.5-8Z" fill="#FFFFFF"/><path d="M19,44a1,1,0,0,0-1-1H10a1,1,0,0,0-1,1v1H19Z" fill="#FFFFFF"/><path d="M15,4a1,1,0,0,0-2,0V41h2Z" fill="#FFFFFF"/><path d="M24,47H4a1,1,0,0,0-1,1v3H25V48A1,1,0,0,0,24,47Z" fill="#FFFFFF"/><path d="M55,25c.012,0-.046.011-.1.013a.984.984,0,0,1-1-.752,2.955,2.955,0,0,0-3.95-2.057,1,1,0,0,1-1.255-.5,2.975,2.975,0,0,0-5.38,0,1,1,0,0,1-1.255.5,2.954,2.954,0,0,0-3.95,2.057,1.013,1.013,0,0,1-1,.752c-.037,0-.136-.011-.173-.016a2.964,2.964,0,0,0-2.748,2H57.816A3,3,0,0,0,55,25Z" fill="#FFFFFF"/><path d="M51,36a4.977,4.977,0,0,1-2,3.974V51a3,3,0,0,1-6,0V39.974A4.977,4.977,0,0,1,41,36a1,1,0,0,0-1-1H33.153L36.3,57H55.7l3.143-22H52A1,1,0,0,0,51,36Z" fill="#FFFFFF"/><path d="M60,29H32a1,1,0,0,0-1,1v2a1,1,0,0,0,1,1h8a3,3,0,0,1,3,3,3,3,0,0,0,6,0,3,3,0,0,1,3-3h8a1,1,0,0,0,1-1V30A1,1,0,0,0,60,29ZM46,37a2,2,0,1,1,2-2A2,2,0,0,1,46,37Z" fill="#FFFFFF"/><path d="M47,51V40.9a5,5,0,0,1-2,0V51a1,1,0,0,0,2,0Z" fill="#FFFFFF"/><path d="M36.745,60.141a1,1,0,0,0,.989.859H54.266a1,1,0,0,0,.989-.858L55.418,59H36.582Z" fill="#FFFFFF"/><circle cx="30" cy="15" r="3" fill="#FFFFFF"/><circle cx="40" cy="5" r="3" fill="#FFFFFF"/><circle cx="59" cy="17" r="3" fill="#FFFFFF"/></svg>
